# xmcd
#
# Track frame offsets: 
#        150
#        20688
#        40132
#        59368
#        83597
#        90209
#        107806
#        129796
#        146992
#        171978
#        181176
#        213043
#        253833
#        293355
#
# Disc length: 4265 seconds
#
# Revision: 0
# Processed by: cddbd v1.5.1PL2 Copyright (c) Steve Scherf et al.
# Submitted via: ExactAudioCopy v0.95a5
#
DISCID=b610a70e
DTITLE=John Primer - All Right
DYEAR=1997
DGENRE=Blues
TTITLE0=Waitin' For My Time
TTITLE1=Still A Fool
TTITLE2=Rock Me Baby
TTITLE3=Kansas City
TTITLE4=Rhinestone Cowboy
TTITLE5=All Right, Okey
TTITLE6=I'm In The Mood
TTITLE7=Drive, Drive, Drive
TTITLE8=That's All I Need
TTITLE9=Lookin' At The Window
TTITLE10=Cairo (Bonus Track)
TTITLE11=Got My Mojo Working (Bonus Track)
TTITLE12=Country Boy (Bonus Track)
TTITLE13=Close To You (Bonus Track)
EXTD=
EXTT0=
EXTT1=
EXTT2=
EXTT3=
EXTT4=
EXTT5=
EXTT6=
EXTT7=
EXTT8=
EXTT9=
EXTT10=
EXTT11=
EXTT12=
EXTT13=
PLAYORDER=
